<svg width="160" height="20" viewBox="0 0 160 20" fill="none" xmlns="http://www.w3.org/2000/svg">
<path d="M14.9477 12.0856H4.31341V9.44706H18.0261C17.6663 8.32766 16.5069 7.28821 14.468 7.28821H4.5133C2.23452 7.28821 0.915228 8.12777 0.915228 9.96678V11.9257C0.915228 13.5249 2.2745 14.4444 4.27343 14.4444H15.0277V17.2429H0.55542C0.915228 18.7621 2.07461 19.5617 4.1535 19.5617H14.9877C17.2665 19.5617 18.3859 18.6821 18.3859 16.8031V14.8442C18.3859 13.1251 17.0666 12.2056 14.9477 12.0856ZM36.6561 7.32819H23.5431V19.6016H27.2611V14.8842H36.936C39.6145 14.8842 41.0937 13.9646 41.0937 11.8058V10.4465C41.0538 8.4476 39.3747 7.32819 36.6561 7.32819ZM37.8555 11.2461C37.8555 12.1256 37.6956 12.6054 36.2563 12.6054H27.2611L27.3011 9.40708H36.0964C37.6956 9.40708 37.8955 9.88683 37.8955 10.7264V11.2461H37.8555ZM53.4471 14.8042H45.5314L43.5724 16.8831H55.0063L56.9653 19.6016H61.3629L51.888 6.80847L49.6492 9.567L53.4471 14.8042ZM68.4791 9.44706H82.3917C82.0319 8.00783 80.6326 7.28821 78.6337 7.28821H68.2392C66.4402 7.28821 64.7211 8.00783 64.7211 9.96678V16.8431C64.7211 18.8021 66.4402 19.5217 68.2392 19.5217H78.7536C81.1523 19.5217 81.9919 18.842 82.3917 17.2029H68.4791V9.44706ZM98.7029 13.5249V11.446H87.4689V19.6016H104.06V17.2829H91.2269V13.5249H98.7029ZM87.8687 7.32819H104.62V9.48704H87.8687V7.32819ZM114.934 7.32819H109.097L115.974 12.3655C116.973 11.6859 118.133 10.9662 119.172 10.3666L114.934 7.32819ZM123.41 13.6048C122.41 14.2845 121.411 15.0441 120.451 15.7637L125.649 19.5617H131.525L123.41 13.6048Z" fill="#B1BBC8"/>
<path d="M159.47 0.171997C127.488 2.01101 112.695 15.6837 109.377 18.922L108.698 19.5616H114.614C130.606 3.5302 153.594 0.691719 159.47 0.171997Z" fill="#B1BBC8"/>
</svg>
