<svg width="98" height="24" viewBox="0 0 98 24" fill="none" xmlns="http://www.w3.org/2000/svg">
<path fill-rule="evenodd" clip-rule="evenodd" d="M6.39833 9.44786C10.7892 7.93441 11.5366 3.99196 10.9761 0.367146C10.9761 0.236354 11.0882 0.142931 11.2003 0.1803C15.4043 2.23561 20.1315 6.71991 20.1315 13.4464C20.1315 18.6033 16.133 23.1623 10.3221 23.1623C8.24859 23.2566 6.20274 22.6577 4.50743 21.4601C2.81213 20.2625 1.56393 18.5345 0.959836 16.5487C0.355744 14.5629 0.430167 12.4325 1.17136 10.4937C1.91255 8.55486 3.2783 6.91811 5.05304 5.84173C5.16514 5.76699 5.31462 5.84173 5.31462 5.97252C5.37068 6.66385 5.55752 8.40152 6.32359 9.44786H6.39833Z" fill="#B1BBC8"/>
<path fill-rule="evenodd" clip-rule="evenodd" d="M32.5007 19.0705L32.8183 18.6968L33.8086 21.8358L33.6778 21.9666C32.9304 22.6579 31.8093 23.0129 30.3706 23.0129H30.3146C29.0066 23.0129 27.979 22.6392 27.269 21.9479C26.559 21.2379 26.1853 20.1729 26.1853 18.8276V10.27H23.6628V6.81337H26.1853V2.64671H30.0717V6.81337H33.1546V10.27H30.053V17.9868C30.053 18.3418 30.1464 19.4815 31.2301 19.4815C31.7906 19.4815 32.3138 19.276 32.5007 19.0518V19.0705ZM34.556 22.6579V6.83206H38.4424V22.6579H34.556ZM36.4805 0.367188C36.9416 0.367202 37.3924 0.503723 37.7761 0.759542C38.1598 1.01536 38.4591 1.37903 38.6364 1.80471C38.8137 2.2304 38.8611 2.69904 38.7724 3.15158C38.6838 3.60412 38.4632 4.0203 38.1385 4.34767C37.8137 4.67504 37.3993 4.89894 36.9475 4.99116C36.4956 5.08337 36.0266 5.03978 35.5996 4.86587C35.1725 4.69196 34.8064 4.39551 34.5476 4.01389C34.2887 3.63227 34.1486 3.18257 34.1449 2.72145C34.1449 1.45089 35.2099 0.367188 36.4805 0.367188ZM48.887 6.43968C52.2503 6.43968 54.1 8.27077 54.1 11.6153V22.6392H50.2136V12.5495C50.1389 10.7558 49.2794 9.9337 47.4483 9.9337C45.8041 9.9337 44.4775 10.9427 43.8048 11.8022V22.6392H39.9184V6.85074H43.8048V8.53235C44.9259 7.44865 46.7196 6.47705 48.887 6.47705V6.43968ZM67.0298 8.4763V1.03983H70.9162V22.6766H67.0298V21.0323C66.4351 21.6596 65.7197 22.16 64.9266 22.5036C64.1334 22.8472 63.279 23.0268 62.4147 23.0316C58.1733 23.0316 55.3332 19.7057 55.3332 14.7543C55.3332 9.78422 58.1733 6.45836 62.4147 6.45836C63.2809 6.46232 64.1371 6.64337 64.9308 6.99039C65.7244 7.33741 66.4387 7.84308 67.0298 8.4763ZM67.0298 11.8208C66.5967 11.2567 66.0432 10.7963 65.4097 10.4731C64.7762 10.1499 64.0785 9.97198 63.3676 9.95238C60.9573 9.95238 59.3504 11.8769 59.3504 14.7543C59.3504 17.6131 60.9573 19.5376 63.3676 19.5376C64.7689 19.5376 66.3011 18.7902 67.0298 17.7065V11.8208ZM79.9969 6.45836C84.5933 6.45836 87.7884 10.0084 87.7884 15.0533V16.1183H76.0358C76.4281 18.3418 78.1845 19.7618 80.5761 19.7618C82.0896 19.7618 83.7525 19.1078 84.7054 18.1549L84.967 17.9307L86.8168 20.5839L86.6299 20.7521C84.8791 22.3044 82.5967 23.121 80.2585 23.0316C75.4005 23.0316 71.9812 19.6123 71.9812 14.7356C71.9434 13.659 72.1236 12.5857 72.5109 11.5804C72.8982 10.5751 73.4846 9.6584 74.235 8.88535C74.9854 8.11229 75.8842 7.49882 76.8775 7.08177C77.8709 6.66471 78.9382 6.45267 80.0156 6.45836H79.9969ZM76.0171 13.1848H83.9954C83.7712 10.8119 81.8093 9.72817 79.9969 9.72817C77.2689 9.72817 76.2413 11.7835 76.0171 13.2035V13.1848ZM97.1867 6.45836H97.467V10.3821L97.1307 10.3261C96.8504 10.27 96.4954 10.2327 96.1404 10.2327C94.8885 10.2327 93.1508 11.1108 92.4969 12.0451V22.6392H88.6105V6.83206H92.5156V8.58841C93.8048 7.24312 95.5051 6.45836 97.1867 6.45836Z" fill="#B1BBC8"/>
</svg>
