<svg width="118" height="24" viewBox="0 0 118 24" fill="none" xmlns="http://www.w3.org/2000/svg">
<path d="M14.1103 4.49802L7.33285 8.82403L14.1103 13.1501L7.33285 17.4761L0.55542 13.114L7.33285 8.78798L0.55542 4.49802L7.33285 0.171997L14.1103 4.49802ZM7.2968 18.846L14.0742 14.52L20.8517 18.846L14.0742 23.172L7.2968 18.846ZM14.1103 13.114L20.8877 8.78798L14.1103 4.49802L20.8517 0.171997L27.6291 4.49802L20.8517 8.82403L27.6291 13.1501L20.8517 17.4761L14.1103 13.114Z" fill="#B1BBC8"/>
<path d="M32.9285 4.49797H38.4081C41.905 4.49797 44.789 6.51677 44.789 11.1312V12.1045C44.789 16.755 42.0852 18.8459 38.5162 18.8459H32.9285V4.49797ZM35.9927 7.09358V16.2143H38.336C40.3187 16.2143 41.6526 14.9165 41.6526 12.0324V11.2754C41.6526 8.39138 40.2466 7.09358 38.2278 7.09358H35.9927ZM46.4112 7.23778H48.8626L49.2592 9.94154C49.7278 8.10298 50.9175 7.12963 53.0805 7.12963H53.8376V10.2299H52.5758C50.0883 10.2299 49.4755 11.0951 49.4755 13.5466V18.882H46.4473V7.23778H46.4112ZM54.4504 13.2942V12.9698C54.4504 9.07634 56.9379 6.94938 60.3266 6.94938C63.7874 6.94938 66.2028 9.07634 66.2028 12.9698V13.2942C66.2028 17.1155 63.8595 19.1704 60.3266 19.1704C56.5774 19.1343 54.4504 17.1155 54.4504 13.2942ZM63.1024 13.2582V12.9698C63.1024 10.8067 62.0209 9.50894 60.2905 9.50894C58.5962 9.50894 57.4786 10.6986 57.4786 12.9698V13.2582C57.4786 15.3491 58.5601 16.5387 60.2905 16.5387C62.0209 16.5027 63.1024 15.3491 63.1024 13.2582ZM67.789 7.23778H70.3125L70.6009 9.43684C71.2137 7.95878 72.5115 6.94938 74.4222 6.94938C77.3783 6.94938 79.325 9.07634 79.325 13.0058V13.3303C79.325 17.1516 77.162 19.1704 74.4222 19.1704C72.5836 19.1704 71.3219 18.3412 70.709 17.0074V22.8835H67.7529L67.789 7.23778ZM76.2608 13.2582V13.0058C76.2608 10.6986 75.0711 9.54499 73.4849 9.54499C71.7905 9.54499 70.673 10.8428 70.673 13.0058V13.2221C70.673 15.277 71.7545 16.5748 73.4488 16.5748C75.1792 16.5387 76.2608 15.4212 76.2608 13.2582ZM83.7952 16.719L83.5429 18.8459H80.9473V3.34436H83.9034V9.29264C84.5523 7.77853 85.8501 6.94938 87.6887 6.94938C90.4645 6.98543 92.5194 8.89609 92.5194 12.7535V13.114C92.5194 16.9713 90.5727 19.1704 87.6166 19.1704C85.6698 19.1343 84.4081 18.2331 83.7952 16.719ZM89.4191 13.114V12.8256C89.4191 10.6986 88.2655 9.50894 86.6432 9.50894C84.9849 9.50894 83.8313 10.8428 83.8313 12.8616V13.114C83.8313 15.277 84.9488 16.5387 86.6071 16.5387C88.3736 16.5387 89.4191 15.4212 89.4191 13.114ZM93.8172 13.2942V12.9698C93.8172 9.07634 96.3046 6.94938 99.6934 6.94938C103.154 6.94938 105.57 9.07634 105.57 12.9698V13.2942C105.57 17.1155 103.19 19.1704 99.6934 19.1704C95.9441 19.1343 93.8172 17.1155 93.8172 13.2942ZM102.505 13.2582V12.9698C102.505 10.8067 101.424 9.50894 99.6934 9.50894C97.999 9.50894 96.8814 10.6986 96.8814 12.9698V13.2582C96.8814 15.3491 97.9629 16.5387 99.6934 16.5387C101.424 16.5027 102.505 15.3491 102.505 13.2582ZM109.535 12.8256L105.461 7.23778H108.958L111.302 10.7346L113.681 7.23778H117.142L112.996 12.7895L117.358 18.8459H113.933L111.265 14.9886L108.67 18.8459H105.101L109.535 12.8256Z" fill="#B1BBC8"/>
</svg>
