<svg width="67" height="32" viewBox="0 0 67 32" fill="none" xmlns="http://www.w3.org/2000/svg">
<path d="M17.6226 17.9657C17.8243 17.7223 18.0084 17.5189 18.1717 17.3C19.1275 16.0185 19.9048 14.6289 20.6405 13.2136C21.7054 11.1647 22.7589 9.10958 23.8517 7.07558C24.5924 5.697 25.4474 4.38599 26.3784 3.12575C26.7257 2.65562 27.0385 2.15993 27.3898 1.69293C27.6082 1.40253 27.8634 1.13873 28.113 0.873232C28.2844 0.690868 28.5023 0.610028 28.7512 0.69062C29.3058 0.870151 29.8651 1.0383 30.4092 1.24592C30.9492 1.4519 31.1648 1.90254 31.2049 2.45336C31.2482 3.04858 31.1375 3.62437 30.9149 4.16843C30.384 5.46616 29.8778 6.77757 29.2704 8.03956C28.2818 10.0933 27.2057 12.1047 26.1945 14.1479C25.3836 15.7864 24.7008 17.4807 24.1169 19.2142C23.8636 19.9665 23.673 20.7295 23.7021 21.5294C23.7252 22.1609 23.9043 22.7124 24.5462 22.9944C24.8671 23.1353 25.1928 23.1534 25.5312 23.0692C26.2886 22.8808 26.9258 22.5179 27.4487 21.9177C28.319 20.9189 28.9857 19.7858 29.6801 18.67C30.6405 17.1268 31.4453 15.5053 32.0595 13.7936C32.1584 13.5179 32.3132 13.3878 32.5913 13.3706C32.9549 13.3481 33.3186 13.2976 33.6816 13.3028C34.0094 13.3075 34.1615 13.426 34.1705 13.7463C34.1836 14.2086 34.175 14.6858 34.0752 15.1342C33.8596 16.103 33.5712 17.0554 33.3291 18.0187C33.0444 19.1515 32.7669 20.2864 32.509 21.4256C32.4323 21.7646 32.4147 22.1204 32.404 22.4695C32.3982 22.6604 32.4633 22.8535 32.5087 23.1171C32.7783 22.9558 32.9834 22.8517 33.1684 22.7194C34.448 21.8042 35.5385 20.6844 36.5888 19.5238C36.6628 19.4421 36.7096 19.2829 36.6884 19.1757C36.2058 16.7424 36.6429 14.3679 37.1963 12.0167C37.8327 9.31318 38.8621 6.7551 40.2765 4.35661C40.9495 3.21514 41.7603 2.18519 42.7178 1.27262C42.97 1.03228 43.263 0.834055 43.5419 0.622556C44.4737 -0.0842323 45.4963 -0.12689 46.5813 0.18494C47.1141 0.33807 47.4292 0.671179 47.5825 1.18566C47.7352 1.698 47.7633 2.2186 47.6997 2.74789C47.568 3.84427 47.2688 4.89466 46.8395 5.9095C45.9368 8.04348 44.8375 10.0731 43.5261 11.9813C42.2842 13.7884 40.9987 15.5656 39.57 17.2331C39.4411 17.3836 39.3642 17.5336 39.3555 17.7396C39.3233 18.5024 39.3585 19.2582 39.5155 20.0068C39.5819 20.3236 39.7228 20.5784 40.0386 20.7145C40.31 20.8314 40.5617 20.8681 40.808 20.6529C41.1812 20.3268 41.5701 20.0182 41.9352 19.6835C42.0163 19.6092 42.071 19.4532 42.0615 19.3413C41.9715 18.2801 42.1881 17.2754 42.6037 16.3084C43.1204 15.1061 43.7475 13.9739 44.707 13.0552C45.6343 12.1673 46.7185 11.7176 48.0123 11.8679C48.6052 11.9368 49.1976 12.0236 49.7823 12.1417C49.9845 12.1825 50.1908 12.312 50.3456 12.4547C50.632 12.7191 50.543 13.0226 50.1701 13.1545C49.9503 13.2321 49.7383 13.2182 49.5408 13.0905C49.4552 13.035 49.3762 12.9691 49.2963 12.9053C48.8663 12.5618 48.848 12.5538 48.4035 12.9021C48.1862 13.0723 47.9778 13.2614 47.7967 13.4693C47.1223 14.2435 46.5132 15.0673 46.1035 16.0149C45.5812 17.2233 45.1208 18.4542 44.9326 19.7682C44.9119 19.9125 44.8994 20.0582 44.8896 20.2038C44.8869 20.2439 44.9079 20.2857 44.9352 20.3967C45.1317 20.2257 45.3119 20.0918 45.4651 19.9319C46.1754 19.1905 46.7963 18.3798 47.3274 17.5C47.8707 16.6002 48.4705 15.7319 48.8331 14.7333C48.9502 14.4111 49.1707 14.2368 49.5364 14.2686C49.768 14.2888 50.0029 14.267 50.2356 14.2786C50.4784 14.2907 50.6124 14.4371 50.6204 14.6735C50.6293 14.9352 50.6371 15.2009 50.6029 15.4593C50.5341 15.9802 50.4298 16.4964 50.3525 17.0163C50.2515 17.695 50.1525 18.3743 50.0734 19.0557C50.042 19.3257 50.0101 19.6088 50.1733 19.8956C50.41 19.8311 50.5655 19.6561 50.7281 19.5021C51.584 18.6919 52.3096 17.7716 52.8657 16.7373C53.7582 15.0774 54.6023 13.3915 55.4697 11.7181C55.7118 11.2511 55.9659 10.7902 56.211 10.3248C56.3394 10.081 56.5179 9.95011 56.8105 9.98988C57.1716 10.039 57.5403 10.0423 57.8969 10.1113C58.435 10.2155 58.6375 10.4818 58.6602 11.0217C58.6806 11.5111 58.5892 11.9839 58.4293 12.4413C58.1209 13.3238 57.7982 14.2014 57.4813 15.081C57.19 15.8894 56.8986 16.6977 56.6072 17.5061C56.635 17.5234 56.6628 17.5407 56.6905 17.558C56.7873 17.4141 56.89 17.2737 56.9801 17.1256C57.77 15.8272 58.5402 14.5164 59.3512 13.2313C60.0681 12.0955 60.7355 10.9208 61.6354 9.91277C62.131 9.35767 62.67 8.8412 63.1932 8.31101C63.5823 7.91675 64.0389 7.75418 64.5886 7.92033C64.8814 8.00883 65.1834 8.07033 65.47 8.17494C65.8475 8.3128 66.062 8.60982 66.093 9.00324C66.1145 9.27619 66.1105 9.5644 66.0456 9.82805C65.9169 10.3516 65.7841 10.8826 65.572 11.3756C64.8214 13.12 64.0492 14.8554 63.2607 16.5831C62.6359 17.9523 61.9748 19.305 61.3316 20.6658C61.2835 20.7675 61.2495 20.8758 61.1967 21.0127C61.3788 21.0506 61.5347 21.0773 61.6877 21.1158C62.1829 21.2403 62.683 21.3502 63.1693 21.5035C63.4588 21.5949 63.7413 21.7322 64 21.8925C64.756 22.3609 65.0195 23.083 64.7613 23.9338C64.5897 24.4993 64.3126 25.0132 63.9425 25.4734C63.3594 26.1985 62.6602 26.791 61.8582 27.2612C60.7645 27.9022 59.6067 27.9345 58.4307 27.5641C57.5476 27.2861 57.0192 26.6659 56.8553 25.7435C56.7303 25.0406 56.7872 24.344 56.9265 23.6531C57.0298 23.1408 57.1651 22.635 57.2956 22.0872C57.1642 22.1033 57.0531 22.1052 56.9482 22.1316C54.9366 22.6391 52.9147 23.1104 50.9181 23.6713C49.2187 24.1487 47.5289 24.6769 45.871 25.2816C44.4052 25.8162 42.9816 26.4698 41.5531 27.1021C39.4971 28.0122 37.4561 28.9561 35.404 29.8752C33.6144 30.6767 31.7178 31.0915 29.79 31.3771C28.279 31.601 26.7652 31.6057 25.2472 31.415C23.3716 31.1794 21.5902 30.6671 19.9317 29.7415C17.7344 28.5152 16.5748 26.6445 16.4099 24.1454C16.3869 23.796 16.3773 23.4446 16.3856 23.0947C16.3898 22.9161 16.4474 22.7388 16.4824 22.5529C16.7167 22.6087 16.6982 22.7642 16.6948 22.8801C16.6393 24.7719 17.7325 25.9047 19.2577 26.7358C20.9903 27.6799 22.8667 28.1492 24.8183 28.3412C26.9335 28.5494 29.0174 28.3691 31.0777 27.8449C33.659 27.1882 36.1622 26.2941 38.665 25.3964C40.7289 24.6561 42.8167 23.9965 44.9634 23.534C47.4776 22.9923 49.9905 22.4439 52.5028 21.8933C53.3446 21.7088 54.1784 21.4852 55.0242 21.3223C55.8122 21.1705 56.6099 21.0664 57.406 20.9612C57.648 20.9292 57.7873 20.8519 57.8848 20.6085C59.1706 17.3979 60.8279 14.3733 62.5323 11.3727C62.9004 10.7245 63.2675 10.0756 63.6321 9.42544C63.7167 9.27464 63.7892 9.11709 63.8876 8.92259C63.6476 8.94258 63.5371 9.089 63.4162 9.19972C62.2988 10.2227 61.3403 11.3757 60.5761 12.6874C59.4874 14.5561 58.3984 16.4247 57.2988 18.2869C57.1142 18.5997 56.8931 18.8956 56.6574 19.1725C56.2395 19.6635 55.3431 19.8772 54.7291 19.6658C54.4392 19.566 54.2392 19.3589 54.2004 19.0735C54.1301 18.5561 54.0761 18.0303 54.089 17.5098C54.0996 17.0761 54.2148 16.6448 54.2859 16.2128C54.3064 16.0883 54.3343 15.9649 54.2985 15.8186C54.2217 15.9529 54.1416 16.0855 54.0685 16.2218C53.5427 17.2022 52.9677 18.1521 52.2872 19.0337C52.0737 19.3102 51.8377 19.572 51.5914 19.8201C50.9175 20.4991 50.0747 20.6627 49.1656 20.5486C48.2704 20.4362 47.7578 19.8372 47.7217 18.9014C47.7119 18.6463 47.7254 18.3903 47.7292 18.0437C47.5982 18.2198 47.5198 18.3202 47.4467 18.4243C47.0349 19.0104 46.625 19.5977 46.2129 20.1835C46.1541 20.2671 46.0864 20.3443 46.0237 20.4252C45.3745 21.2634 44.4964 21.4401 43.5109 21.2806C43.0558 21.2069 42.6998 20.9641 42.4501 20.5719C42.3967 20.488 42.3399 20.4062 42.2812 20.3182C41.9446 20.5312 41.6352 20.7524 41.3031 20.932C40.6429 21.2891 39.9522 21.5567 39.1825 21.5559C38.2338 21.555 37.523 21.1627 37.0855 20.3073C37.0657 20.2684 37.0445 20.2303 37.0223 20.1927C37.0151 20.1804 37.0026 20.1712 36.9658 20.1325C36.873 20.2133 36.7776 20.294 36.6847 20.3778C35.8823 21.1018 35.0936 21.8418 34.2735 22.5452C33.7168 23.0228 33.0958 23.4109 32.3611 23.5713C32.304 23.5838 32.2471 23.5976 32.1898 23.6087C31.0949 23.8218 30.4436 23.3975 30.2099 22.2971C29.9964 21.2913 30.103 20.2912 30.3022 19.2959C30.3409 19.1026 30.3785 18.909 30.4166 18.7156C30.3886 18.7054 30.3605 18.6953 30.3325 18.6851C30.1993 18.8911 30.069 19.0988 29.9326 19.3025C29.4286 20.0553 28.9544 20.8308 28.4088 21.5521C27.8418 22.3018 27.1653 22.9387 26.246 23.2729C25.285 23.6223 24.3425 24.0208 23.3028 24.0875C21.9572 24.1738 20.9519 23.4312 20.6457 22.1123C20.4438 21.2424 20.4896 20.369 20.6181 19.4978C20.819 18.135 21.1818 16.8094 21.6089 15.5034C21.9722 14.3928 22.381 13.2971 22.7688 12.1945C22.8103 12.0767 22.8458 11.9569 22.8153 11.8063C22.7435 11.9381 22.6711 12.0696 22.6 12.2019C21.8043 13.6826 21.026 15.1733 20.0276 16.534C19.5317 17.2099 18.9936 17.8488 18.2761 18.2953C17.845 18.5636 17.3734 18.7668 16.9191 18.9977C16.8806 19.0172 16.8364 19.0262 16.7943 19.0383C15.8143 19.3206 15.2023 18.972 14.961 17.9771C14.7805 17.2331 14.745 16.4763 14.7896 15.7124C14.8926 13.9477 15.3089 12.2491 15.8498 10.5755C15.9396 10.2974 16.033 10.0205 16.1195 9.74139C16.143 9.66577 16.1477 9.58429 16.0991 9.48759C16.0363 9.63112 15.9663 9.77202 15.9116 9.91864C15.2739 11.6302 14.6188 13.3355 14.0076 15.0565C13.2194 17.2756 12.1463 19.3461 10.8144 21.2808C9.40355 23.3301 7.62018 24.9585 5.31859 25.9696C4.68668 26.2472 4.03309 26.4559 3.3354 26.4795C2.05601 26.5228 1.14165 25.872 0.78975 24.6381C0.3934 23.2484 0.50427 21.8697 1.08875 20.5659C2.09295 18.3258 3.74612 16.7166 6.01444 15.7532C7.3433 15.1888 8.69453 15.2541 10.0499 15.626C10.2504 15.6811 10.4404 15.8149 10.6044 15.9498C10.7385 16.06 10.7603 16.2585 10.644 16.3858C10.5787 16.4574 10.4015 16.4768 10.2937 16.4483C10.1168 16.4016 9.92137 16.3313 9.79563 16.2079C9.62261 16.0382 9.46123 16.0212 9.24376 16.0706C8.45186 16.2502 7.69113 16.5147 7.04251 17.0091C5.35643 18.2942 4.22818 19.9164 4.05969 22.0973C4.01166 22.719 4.06779 23.326 4.31907 23.9008C4.54479 24.4171 4.87993 24.8244 5.4758 24.9342C5.74945 24.9846 6.00564 24.9519 6.21167 24.7529C6.74674 24.2364 7.31551 23.7478 7.79926 23.1865C9.23909 21.5158 10.354 19.6297 11.3547 17.6713C12.2144 15.9888 12.8944 14.2319 13.5728 12.4722C14.1193 11.0545 14.6854 9.64335 15.2839 8.24688C16.1039 6.33364 17.1433 4.53773 18.3036 2.81093C18.6459 2.30138 18.9881 1.79142 19.3158 1.27247C19.5068 0.970084 19.7492 0.860853 20.0934 0.967995C20.5946 1.12401 21.1009 1.26397 21.5992 1.42823C22.0075 1.56282 22.2189 1.87132 22.2141 2.29352C22.2093 2.71508 22.2162 3.14946 22.119 3.55451C21.9526 4.24808 21.7576 4.94303 21.4877 5.60174C20.9672 6.87203 20.3732 8.11199 19.8334 9.37468C19.2477 10.7448 18.6597 12.1153 18.1299 13.5074C17.835 14.2821 17.636 15.096 17.4355 15.9025C17.3452 16.266 17.3372 16.6543 17.3283 17.0322C17.3212 17.3379 17.3708 17.6442 17.6226 17.9657ZM39.6635 15.8548C39.7695 15.7184 39.88 15.5852 39.9807 15.4449C40.4835 14.7448 40.9919 14.0484 41.4835 13.3404C42.9863 11.1755 44.3122 8.90783 45.4025 6.50636C45.8257 5.57405 46.1886 4.61867 46.4198 3.618C46.5964 2.85369 46.6446 2.08456 46.449 1.31816C46.386 1.07151 46.2642 0.839921 46.1633 0.586211C45.7552 0.758235 45.5159 1.03387 45.276 1.30443C44.3272 2.37481 43.6085 3.59419 43.0133 4.88586C42.1201 6.82401 41.3378 8.80546 40.7306 10.8546C40.2491 12.4793 39.8689 14.1254 39.6635 15.8548ZM60.8875 21.6491C60.2629 22.9825 59.8341 24.2831 59.5539 25.6325C59.5126 25.8316 59.4775 26.0401 59.4918 26.2404C59.5071 26.4537 59.5539 26.6764 59.6416 26.8703C59.8027 27.2264 59.9009 27.2495 60.2565 27.1005C61.5685 26.5509 62.4304 25.5506 63.0128 24.2927C63.2376 23.8072 63.2842 23.2749 63.1391 22.7482C63.0073 22.2698 62.7225 21.8777 62.2347 21.7626C61.8033 21.6607 61.3427 21.6825 60.8875 21.6491Z" fill="#B1BBC8"/>
<path d="M34.563 9.59298C34.5429 9.77112 34.5414 9.9153 34.5086 10.052C34.352 10.7046 34.1811 11.3537 34.0284 12.0071C33.9783 12.2213 33.8686 12.3408 33.6519 12.3651C33.6085 12.37 33.5663 12.3843 33.523 12.3903C32.7161 12.5014 32.5781 12.3991 32.614 11.5935C32.6393 11.0273 32.7341 10.4643 32.7967 9.89979C32.8237 9.65662 32.9616 9.55072 33.2019 9.52909C33.6367 9.49002 34.07 9.43389 34.563 9.59298Z" fill="#B1BBC8"/>
</svg>
