<svg width="89" height="28" viewBox="0 0 89 28" fill="none" xmlns="http://www.w3.org/2000/svg">
<path d="M46.9344 6.95578C46.9344 7.92875 46.1372 8.71254 45.1476 8.71254C44.1579 8.71254 43.3607 7.92875 43.3607 6.95578C43.3607 5.98281 44.1304 5.19902 45.1476 5.19902C46.1647 5.22605 46.9344 6.00983 46.9344 6.95578ZM39.5669 10.4963V10.9288C39.5669 10.9288 38.7147 9.84767 36.9003 9.84767C33.9039 9.84767 31.5672 12.0909 31.5672 15.199C31.5672 18.2801 33.8764 20.5504 36.9003 20.5504C38.7422 20.5504 39.5669 19.4423 39.5669 19.4423V19.9017C39.5669 20.1179 39.7319 20.2801 39.9518 20.2801H42.1786V10.1179H39.9518C39.7319 10.1179 39.5669 10.3071 39.5669 10.4963ZM39.5669 17.0098C39.1546 17.6044 38.3299 18.1179 37.3402 18.1179C35.5808 18.1179 34.2337 17.0369 34.2337 15.199C34.2337 13.3612 35.5808 12.2801 37.3402 12.2801C38.3024 12.2801 39.1821 12.8206 39.5669 13.3882V17.0098ZM43.828 10.1179H46.4671V20.2801H43.828V10.1179ZM83.2496 9.84767C81.4353 9.84767 80.5831 10.9288 80.5831 10.9288V5.22605H77.944V20.2801H80.1707C80.3906 20.2801 80.5556 20.0909 80.5556 19.9017V19.4423C80.5556 19.4423 81.4078 20.5504 83.2222 20.5504C86.2187 20.5504 88.5554 18.2801 88.5554 15.199C88.5554 12.1179 86.2186 9.84767 83.2496 9.84767ZM82.8098 18.0909C81.7926 18.0909 80.9954 17.5774 80.5831 16.9828V13.3612C80.9954 12.8206 81.8751 12.2531 82.8098 12.2531C84.5692 12.2531 85.9163 13.3342 85.9163 15.172C85.9163 17.0098 84.5692 18.0909 82.8098 18.0909ZM76.5694 14.2531V20.3071H73.9303V14.5504C73.9303 12.8747 73.3805 12.199 71.896 12.199C71.0988 12.199 70.274 12.6044 69.7517 13.199V20.2801H67.1126V10.1179H69.2019C69.4218 10.1179 69.5868 10.3071 69.5868 10.4963V10.9288C70.3565 10.145 71.3737 9.84767 72.3908 9.84767C73.5454 9.84767 74.5076 10.172 75.2774 10.8206C76.212 11.5774 76.5694 12.5504 76.5694 14.2531ZM60.7073 9.84767C58.8929 9.84767 58.0407 10.9288 58.0407 10.9288V5.22605H55.4016V20.2801H57.6283C57.8483 20.2801 58.0132 20.0909 58.0132 19.9017V19.4423C58.0132 19.4423 58.8654 20.5504 60.6798 20.5504C63.6763 20.5504 66.013 18.2801 66.013 15.199C66.0405 12.1179 63.7038 9.84767 60.7073 9.84767ZM60.2674 18.0909C59.2503 18.0909 58.4531 17.5774 58.0407 16.9828V13.3612C58.4531 12.8206 59.3328 12.2531 60.2674 12.2531C62.0268 12.2531 63.3739 13.3342 63.3739 15.172C63.3739 17.0098 62.0268 18.0909 60.2674 18.0909ZM53.1199 9.84767C53.9171 9.84767 54.3294 9.98281 54.3294 9.98281V12.3882C54.3294 12.3882 52.1302 11.6585 50.7557 13.199V20.3071H48.1166V10.1179H50.3433C50.5632 10.1179 50.7282 10.3071 50.7282 10.4963V10.9288C51.223 10.3612 52.2951 9.84767 53.1199 9.84767ZM25.7116 19.3612C25.5742 19.0369 25.4367 18.6855 25.2993 18.3882C25.0793 17.9017 24.8594 17.4423 24.667 17.0098L24.6395 16.9828C22.7426 12.9288 20.7083 8.82065 18.5641 4.76659L18.4816 4.60443C18.2617 4.19902 18.0417 3.76659 17.8218 3.33416C17.5469 2.84767 17.272 2.33416 16.8321 1.84767C15.9524 0.766592 14.6879 0.171997 13.3408 0.171997C11.9663 0.171997 10.7292 0.766592 9.82201 1.79362C9.40965 2.28011 9.10725 2.79362 8.83235 3.28011C8.61242 3.71254 8.3925 4.14497 8.17257 4.55038L8.0901 4.71254C5.97332 8.76659 3.91151 12.8747 2.01466 16.9288L1.98717 16.9828C1.79473 17.4152 1.57481 17.8747 1.35488 18.3612C1.21743 18.6585 1.07997 18.9828 0.94252 19.3342C0.585141 20.3342 0.475178 21.2801 0.612631 22.2531C0.915029 24.2801 2.28956 25.9828 4.18642 26.7396C4.90118 27.0369 5.64343 27.172 6.41317 27.172C6.63309 27.172 6.908 27.145 7.12793 27.1179C8.03512 27.0098 8.9698 26.7125 9.877 26.199C11.0041 25.5774 12.0763 24.6855 13.2858 23.3882C14.4954 24.6855 15.5951 25.5774 16.6947 26.199C17.6019 26.7125 18.5366 27.0098 19.4438 27.1179C19.6637 27.145 19.9386 27.172 20.1585 27.172C20.9283 27.172 21.698 27.0369 22.3853 26.7396C24.3096 25.9828 25.6567 24.2531 25.9591 22.2531C26.179 21.3071 26.069 20.3612 25.7116 19.3612ZM13.3133 20.7666C11.8288 18.9288 10.8667 17.199 10.5368 15.7396C10.3993 15.1179 10.3718 14.5774 10.4543 14.0909C10.5093 13.6585 10.6742 13.2801 10.8942 12.9558C11.4165 12.2261 12.2962 11.7666 13.3133 11.7666C14.3305 11.7666 15.2377 12.199 15.7325 12.9558C15.9524 13.2801 16.1174 13.6585 16.1724 14.0909C16.2548 14.5774 16.2273 15.145 16.0899 15.7396C15.76 17.172 14.7978 18.9017 13.3133 20.7666ZM24.2821 22.0369C24.0897 23.4423 23.1275 24.6585 21.7805 25.199C21.1207 25.4693 20.4059 25.5504 19.6912 25.4693C19.0039 25.3882 18.3166 25.172 17.6019 24.7666C16.6122 24.226 15.6226 23.3882 14.4679 22.145C16.2823 19.9558 17.382 17.9558 17.7943 16.172C17.9867 15.3342 18.0142 14.5774 17.9318 13.8747C17.8218 13.199 17.5744 12.5774 17.1895 12.0369C16.3373 10.8206 14.9078 10.1179 13.3133 10.1179C11.7189 10.1179 10.2894 10.8477 9.43714 12.0369C9.05227 12.5774 8.80486 13.199 8.69489 13.8747C8.58493 14.5774 8.61242 15.3612 8.83235 16.172C9.24471 17.9558 10.3718 19.9828 12.1587 22.172C11.0316 23.4152 10.0144 24.2531 9.02478 24.7936C8.31003 25.199 7.62276 25.4152 6.93549 25.4963C6.19324 25.5774 5.47848 25.4693 4.8462 25.226C3.49915 24.6855 2.53698 23.4693 2.34454 22.0639C2.26207 21.3882 2.31705 20.7125 2.59196 19.9558C2.67443 19.6855 2.81189 19.4152 2.94934 19.0909C3.14177 18.6585 3.3617 18.199 3.58163 17.7396L3.60912 17.6855C5.50597 13.6585 7.54029 9.55037 9.65707 5.55037L9.73954 5.38821C9.95947 4.98281 10.1794 4.55037 10.3993 4.14497C10.6192 3.71254 10.8667 3.30713 11.1691 2.95578C11.7464 2.30713 12.5161 1.95578 13.3683 1.95578C14.2205 1.95578 14.9903 2.30713 15.5676 2.95578C15.87 3.30713 16.1174 3.71254 16.3373 4.14497C16.5572 4.55037 16.7772 4.98281 16.9971 5.38821L17.0796 5.55037C19.1688 9.5774 21.2032 13.6855 23.1 17.7125V17.7396C23.3199 18.172 23.5124 18.6585 23.7323 19.0909C23.8698 19.4152 24.0072 19.6855 24.0897 19.9558C24.3096 20.6585 24.3921 21.3342 24.2821 22.0369Z" fill="#B1BBC8"/>
</svg>
