<svg width="82" height="27" viewBox="0 0 82 27" fill="none" xmlns="http://www.w3.org/2000/svg">
<path d="M0.642029 21.1459V5.33945L14.5107 0.171997L22.0478 2.60374V23.8815L14.5107 26.172L0.642029 21.1459L14.5107 22.8284V4.42771L5.46573 6.55545V19.0183L0.642029 21.1459ZM36.8185 21.2567C34.6354 21.2567 32.8871 20.5315 31.5737 19.0809C30.2603 17.6304 29.6036 15.7434 29.6036 13.4196C29.6036 10.9227 30.2728 8.93097 31.6113 7.4445C32.9498 5.9579 34.7714 5.21466 37.0762 5.21466C39.202 5.21466 40.9145 5.93631 42.2136 7.37953C43.5127 8.82284 44.1623 10.7099 44.1623 13.0409C44.1623 15.5739 43.4966 17.5764 42.1653 19.0487C40.8339 20.5208 39.0518 21.2567 36.8185 21.2567ZM36.9474 6.8597C35.3297 6.8597 34.0163 7.44782 33.007 8.62409C31.9978 9.8004 31.4932 11.3447 31.4932 13.2571C31.4932 15.1694 31.9853 16.7084 32.9694 17.8738C33.9536 19.0393 35.2366 19.622 36.8185 19.622C38.5077 19.622 39.8391 19.0663 40.8125 17.955C41.7859 16.8437 42.2726 15.2885 42.2726 13.2895C42.2726 11.2401 41.8002 9.65603 40.8554 8.53754C39.9106 7.41901 38.608 6.85975 36.9474 6.8597ZM50.5778 4.3474C49.5829 4.3474 48.7561 4.68904 48.0905 5.36379C47.4248 6.03854 47.0917 6.95668 47.0917 8.1185V9.91379H45.2169V11.4336H47.0918V20.999H48.8442V11.4336H53.1311V20.999H54.8835V11.4336H57.4556V9.91379H54.8835V8.20394C54.8835 6.63798 55.499 5.85772 56.7301 5.85772C57.1668 5.85772 57.5549 5.94784 57.8985 6.14269V4.54685C57.5835 4.41696 57.1633 4.3474 56.6265 4.3474C55.6316 4.3474 54.7954 4.68904 54.1298 5.36375C53.4641 6.03854 53.1311 6.95664 53.1311 8.11846V9.91375H48.8442V8.20394C48.8442 6.63794 49.4597 5.85768 50.6908 5.85768C51.1275 5.85768 51.5156 5.94784 51.8592 6.14265V4.54685C51.5442 4.41696 51.1146 4.34744 50.5778 4.3474ZM60.0163 7.09633C59.7014 7.09633 59.433 6.98811 59.2111 6.7716C58.9892 6.55512 58.8783 6.28091 58.8783 5.94891C58.8783 5.61695 58.9892 5.34093 59.2111 5.12084C59.433 4.90076 59.7014 4.79069 60.0163 4.79069C60.3384 4.79069 60.6122 4.90076 60.8376 5.12084C61.0631 5.34097 61.1758 5.61699 61.1759 5.94891C61.1758 6.26646 61.0631 6.53706 60.8376 6.76072C60.6122 6.98446 60.3384 7.09637 60.0163 7.09633ZM60.8752 20.9951H59.1145V9.91071H60.8752V20.9951ZM70.8786 20.4864C70.034 20.9987 69.0319 21.2549 67.8724 21.2549C66.3048 21.2549 65.0397 20.7407 64.077 19.7124C63.1143 18.684 62.6329 17.3508 62.6329 15.7127C62.6329 13.8869 63.1519 12.4202 64.1897 11.3124C65.2275 10.2047 66.6125 9.65086 68.3447 9.65086C69.311 9.65086 70.1628 9.83126 70.9 10.1921V12.0106C70.084 11.4333 69.2108 11.1446 68.2803 11.1446C67.1565 11.1446 66.235 11.5505 65.5156 12.3624C64.7963 13.1743 64.4366 14.2405 64.4366 15.5611C64.4366 16.8601 64.7748 17.8848 65.4512 18.6353C66.1276 19.3858 67.0348 19.7611 68.1729 19.761C69.1321 19.761 70.0339 19.4399 70.8786 18.7976L70.8786 20.4864ZM81.6419 15.8974H73.8795C73.9081 17.1314 74.2374 18.084 74.8673 18.755C75.4971 19.4262 76.3633 19.7617 77.4655 19.7617C78.7038 19.7617 79.8419 19.3504 80.8798 18.5277V20.1947C79.9135 20.9019 78.6358 21.2555 77.0468 21.2555C75.4936 21.2555 74.2732 20.7522 73.3856 19.7455C72.4981 18.7388 72.0543 17.3226 72.0543 15.4968C72.0543 13.7721 72.5392 12.3667 73.5091 11.2806C74.479 10.1946 75.6833 9.6516 77.122 9.6516C78.5607 9.6516 79.6737 10.1207 80.461 11.0588C81.2484 11.9969 81.642 13.2995 81.642 14.9665L81.6419 15.8974ZM79.8383 14.3928C79.8311 13.3681 79.5859 12.5707 79.1028 12.0005C78.6196 11.4305 77.9486 11.1454 77.0897 11.1454C76.2594 11.1454 75.5543 11.4449 74.9746 12.0438C74.3948 12.6428 74.0369 13.4258 73.9009 14.3928H79.8383Z" fill="#B1BBC8"/>
</svg>
